<svg width="232" height="291" viewBox="0 0 232 291" fill="none" xmlns="http://www.w3.org/2000/svg">
<path d="M1 289.324V1H212.585L230.532 16.475V272.627L214.475 289.324H1Z" stroke="#5C83D4" stroke-opacity="0.66" stroke-width="1.5999"/>
<path d="M1 289.324V1H212.585L230.532 16.475V272.627L214.475 289.324H1Z" stroke="#5C83D4" stroke-opacity="0.66" stroke-width="1.5999"/>
<path d="M112.508 193.074C113.615 193.72 114.169 194.043 114.95 194.211C115.556 194.341 116.44 194.341 117.046 194.211C117.828 194.043 118.381 193.72 119.488 193.074C129.228 187.392 155.998 169.542 155.998 145V126C155.998 120.631 155.998 117.946 155.17 116.04C154.329 114.103 153.491 113.073 151.766 111.855C150.068 110.656 146.741 109.964 140.087 108.58C132.752 107.055 127.119 104.3 121.97 100.317C119.501 98.4064 118.266 97.4512 117.3 97.1907C116.28 96.9158 115.716 96.9158 114.696 97.1907C113.73 97.4512 112.496 98.4064 110.026 100.317C104.877 104.3 99.244 107.055 91.9095 108.58C85.2549 109.964 81.9276 110.656 80.2303 111.855C78.5052 113.073 77.667 114.103 76.8257 116.04C75.998 117.946 75.998 120.631 75.998 126V145C75.998 169.542 102.768 187.392 112.508 193.074Z" fill="#6C6392" fill-opacity="0.14" stroke="#7079B5" stroke-opacity="0.32" stroke-width="2.56826" stroke-linecap="round" stroke-linejoin="round"/>
<path d="M114.454 162.131C124.693 162.131 132.994 153.83 132.994 143.592C132.994 133.353 124.693 125.052 114.454 125.052C104.215 125.052 95.915 133.353 95.915 143.592C95.915 153.83 104.215 162.131 114.454 162.131Z" stroke="#8482C9" stroke-opacity="0.29" stroke-width="1.79778" stroke-linecap="round" stroke-linejoin="round"/>
<path d="M117.665 145.806C117.534 145.414 117.468 145.218 117.472 145.057C117.475 144.889 117.498 144.8 117.576 144.65C117.65 144.508 117.847 144.324 118.242 143.956C119.334 142.941 120.016 141.492 120.016 139.884C120.016 136.812 117.526 134.322 114.454 134.322C111.383 134.322 108.893 136.812 108.893 139.884C108.893 141.492 109.575 142.941 110.666 143.956C111.062 144.324 111.259 144.508 111.333 144.65C111.411 144.8 111.433 144.889 111.437 145.057C111.44 145.218 111.375 145.414 111.244 145.806L109.543 150.909C109.324 151.568 109.214 151.898 109.28 152.16C109.337 152.39 109.481 152.588 109.68 152.716C109.908 152.861 110.256 152.861 110.95 152.861H117.958C118.653 152.861 119.001 152.861 119.229 152.716C119.428 152.588 119.571 152.39 119.629 152.16C119.695 151.898 119.585 151.568 119.365 150.909L117.665 145.806Z" stroke="#8482C9" stroke-opacity="0.29" stroke-width="1.79778" stroke-linecap="round" stroke-linejoin="round"/>
</svg>
