<svg width="24" height="24" viewBox="0 0 24 24" fill="none" xmlns="http://www.w3.org/2000/svg">
<path d="M11.835 0C18.3712 0 23.6699 5.29869 23.6699 11.835C23.6698 18.3712 18.3712 23.6699 11.835 23.6699C5.29876 23.6699 0.000123698 18.3711 0 11.835C2.57701e-05 5.2987 5.2987 2.57714e-05 11.835 0ZM11.835 2.92188C6.91234 2.9219 2.9219 6.91234 2.92188 11.835C2.922 16.7575 6.91241 20.748 11.835 20.748C16.7575 20.748 20.7479 16.7575 20.748 11.835C20.748 6.91233 16.7576 2.92188 11.835 2.92188ZM16.4746 8.46777C16.953 7.99542 17.7239 8.0003 18.1963 8.47852C18.6687 8.95692 18.6639 9.72777 18.1855 10.2002L11.3584 16.9414L10.5039 17.7861L9.64844 16.9414L6.49707 13.8301L6.41309 13.7383C6.02009 13.2626 6.04343 12.5569 6.48633 12.1084C6.92926 11.66 7.63468 11.6276 8.11523 12.0146L8.20801 12.0977L10.5029 14.3643L16.4746 8.46777Z" fill="#26F375"/>
</svg>
