<svg width="230" height="49" viewBox="0 0 230 49" fill="none" xmlns="http://www.w3.org/2000/svg">
<path d="M65.7246 1.69806L83.2686 16.6297L83.7275 17.0203H228.36V31.6932L212.912 46.576L1.63965 46.3836L1.6543 11.5467L15.2871 1.69806H65.7246Z" stroke="#5C83D4" stroke-width="3.27869"/>
<path d="M74.1392 -0.000270844L87.6711 11.9886L104.425 11.9886L91.5374 -0.00027194L74.1392 -0.000270844Z" fill="url(#paint0_linear_935_16121)"/>
<path d="M124.369 -0.000270844L137.901 11.9886L154.655 11.9886L141.767 -0.00027194L124.369 -0.000270844Z" fill="url(#paint1_linear_935_16121)"/>
<path d="M99.2544 -0.000270844L112.786 11.9886L129.54 11.9886L116.653 -0.00027194L99.2544 -0.000270844Z" fill="url(#paint2_linear_935_16121)"/>
<path d="M150.223 -0.000270844L163.625 11.9886L230 11.9886L230 -0.000276801L150.223 -0.000270844Z" fill="url(#paint3_linear_935_16121)"/>
<path d="M147.397 39.204H143.433V33.0613L136.832 23.4645H141.589L145.415 29.2147L149.241 23.4645H153.998L147.397 33.0613V39.204Z" fill="#17293B"/>
<path d="M136.483 35.8682C136.483 36.3654 136.397 36.8168 136.226 37.2224C136.067 37.628 135.836 37.9747 135.532 38.2625C135.241 38.5635 134.884 38.7924 134.461 38.9494C134.052 39.1195 133.602 39.2046 133.113 39.2046H121.597V23.4454H133.113C133.602 23.4454 134.052 23.5304 134.461 23.7005C134.884 23.8575 135.241 24.0865 135.532 24.3874C135.836 24.6753 136.067 25.0285 136.226 25.4472C136.397 25.8528 136.483 26.2976 136.483 26.7817V35.8682ZM132.519 35.672V27.0172H125.561V35.672H132.519Z" fill="#17293B"/>
<path d="M120.826 39.2046H116.485L115.395 35.672H109.706L108.516 39.2046H104.175L109.468 23.4454H115.91L120.826 39.2046ZM114.404 32.4142L113.551 29.5881C113.406 29.091 113.254 28.5742 113.095 28.0377C112.95 27.4882 112.824 26.9649 112.719 26.4677C112.6 26.9649 112.454 27.4882 112.283 28.0377C112.111 28.5742 111.946 29.091 111.787 29.5881L110.816 32.4142H114.404Z" fill="#17293B"/>
<path d="M103.547 39.2046H92.5459C91.687 39.2046 90.9866 38.9363 90.4448 38.3999C89.9162 37.8766 89.6519 37.1897 89.6519 36.3393V26.3107C89.6519 25.4603 89.9162 24.7734 90.4448 24.25C90.9866 23.7136 91.687 23.4454 92.5459 23.4454H103.547V26.978H93.6163V29.49H103.23V32.7282H93.6163V35.672H103.547V39.2046Z" fill="#17293B"/>
<path d="M89.0882 39.2046H84.4299L81.5358 34.2197H77.9083V39.2046H73.9438V23.4454H85.0047C85.8637 23.4454 86.5575 23.7136 87.0861 24.25C87.6279 24.7734 87.8988 25.4603 87.8988 26.3107V31.3544C87.8988 32.0478 87.7138 32.6366 87.3438 33.1207C86.987 33.5917 86.5112 33.9188 85.9166 34.102L89.0882 39.2046ZM83.9343 30.6872V26.978H77.9083V30.6872H83.9343Z" fill="#17293B"/>
<defs>
<linearGradient id="paint0_linear_935_16121" x1="89.2821" y1="11.9886" x2="89.2821" y2="-0.000271798" gradientUnits="userSpaceOnUse">
<stop stop-color="#B3C8FD"/>
<stop offset="1" stop-color="#4060B1"/>
</linearGradient>
<linearGradient id="paint1_linear_935_16121" x1="139.512" y1="11.9886" x2="139.512" y2="-0.000271798" gradientUnits="userSpaceOnUse">
<stop stop-color="#B3C8FD"/>
<stop offset="1" stop-color="#4060B1"/>
</linearGradient>
<linearGradient id="paint2_linear_935_16121" x1="114.397" y1="11.9886" x2="114.397" y2="-0.000271798" gradientUnits="userSpaceOnUse">
<stop stop-color="#B3C8FD"/>
<stop offset="1" stop-color="#4060B1"/>
</linearGradient>
<linearGradient id="paint3_linear_935_16121" x1="190.111" y1="11.9886" x2="190.111" y2="-0.000273822" gradientUnits="userSpaceOnUse">
<stop stop-color="#B7D8FF"/>
<stop offset="1" stop-color="#4060B1"/>
</linearGradient>
</defs>
</svg>
