<svg width="230" height="50" viewBox="0 0 230 50" fill="none" xmlns="http://www.w3.org/2000/svg">
<path d="M0 36.9231V0H27.4218H49.3116H210.671L230 16.0256L229.848 36.9231L86.2115 36.6667L68.5 50H15.5388L0 36.9231Z" fill="url(#paint0_linear_935_16113)"/>
<path d="M77 50L90.1565 40H106.445L93.9155 50H77Z" fill="url(#paint1_linear_935_16113)"/>
<path d="M125.836 50L138.992 40H155.281L142.751 50H125.836Z" fill="url(#paint2_linear_935_16113)"/>
<path d="M101.418 50L114.575 40H130.864L118.334 50H101.418Z" fill="url(#paint3_linear_935_16113)"/>
<path d="M151 50L164.104 40H230V50H151Z" fill="url(#paint4_linear_935_16113)"/>
<defs>
<linearGradient id="paint0_linear_935_16113" x1="1.25334" y1="25" x2="228.808" y2="25" gradientUnits="userSpaceOnUse">
<stop stop-color="#7B81FF"/>
<stop offset="1" stop-color="#DADFFF"/>
</linearGradient>
<linearGradient id="paint1_linear_935_16113" x1="91.7227" y1="40" x2="91.7227" y2="50" gradientUnits="userSpaceOnUse">
<stop stop-color="#B3C8FD"/>
<stop offset="1" stop-color="#4060B1"/>
</linearGradient>
<linearGradient id="paint2_linear_935_16113" x1="140.559" y1="40" x2="140.559" y2="50" gradientUnits="userSpaceOnUse">
<stop stop-color="#B3C8FD"/>
<stop offset="1" stop-color="#4060B1"/>
</linearGradient>
<linearGradient id="paint3_linear_935_16113" x1="116.141" y1="40" x2="116.141" y2="50" gradientUnits="userSpaceOnUse">
<stop stop-color="#B3C8FD"/>
<stop offset="1" stop-color="#4060B1"/>
</linearGradient>
<linearGradient id="paint4_linear_935_16113" x1="190" y1="40" x2="190" y2="50" gradientUnits="userSpaceOnUse">
<stop stop-color="#B7D8FF"/>
<stop offset="1" stop-color="#4060B1"/>
</linearGradient>
</defs>
</svg>
