<svg width="25" height="24" viewBox="0 0 25 24" fill="none" xmlns="http://www.w3.org/2000/svg">
<path d="M24.4109 11.8433C24.4109 18.3796 19.1122 23.6783 12.576 23.6783C6.03985 23.6783 0.741211 18.3796 0.741211 11.8433C0.741211 5.30701 6.03985 0.00830078 12.576 0.00830078C19.1122 0.00830078 24.4109 5.30701 24.4109 11.8433ZM3.7885 11.8433C3.7885 16.6966 7.72282 20.631 12.576 20.631C17.4293 20.631 21.3636 16.6966 21.3636 11.8433C21.3636 6.99001 17.4293 3.05563 12.576 3.05563C7.72282 3.05563 3.7885 6.99001 3.7885 11.8433Z" fill="#D9D9D9"/>
<path d="M16.3204 21.4904C16.6175 22.2559 17.4848 22.6436 18.2069 22.2529C20.1949 21.1776 21.8432 19.5496 22.9433 17.5516C24.2836 15.1173 24.7246 12.289 24.189 9.56222C23.6534 6.83545 22.1754 4.3841 20.0139 2.63766C18.2398 1.2042 16.0981 0.320672 13.8512 0.0771714C13.0349 -0.0112861 12.3787 0.675634 12.3932 1.49655V1.49655C12.4077 2.31747 13.0894 2.95841 13.9012 3.0812C15.448 3.31515 16.9147 3.95608 18.1453 4.95036C19.7638 6.25805 20.8704 8.09356 21.2715 10.1353C21.6725 12.177 21.3423 14.2948 20.3388 16.1175C19.5757 17.5034 18.4604 18.6515 17.1169 19.4532C16.4119 19.8739 16.0234 20.725 16.3204 21.4904V21.4904Z" fill="url(#paint0_linear_952_29133)"/>
<defs>
<linearGradient id="paint0_linear_952_29133" x1="16.8366" y1="0.00830086" x2="19.677" y2="23.6783" gradientUnits="userSpaceOnUse">
<stop stop-color="#FF58A9"/>
<stop offset="1" stop-color="#FFBDBE"/>
</linearGradient>
</defs>
</svg>
