<svg width="53" height="53" viewBox="0 0 53 53" fill="none" xmlns="http://www.w3.org/2000/svg">
<path d="M26.1222 4.40955L32.8488 18.2115L47.8909 20.4383L37.0066 31.1756L39.5753 46.3445L26.1222 39.1789L12.6692 46.3445L15.2379 31.1756L4.35352 20.4383L19.3957 18.2115L26.1222 4.40955Z" stroke="#346BDC" stroke-width="2.29572" stroke-linecap="round" stroke-linejoin="round"/>
<path d="M25.4842 13.4871C25.6823 12.865 26.5625 12.865 26.7606 13.4871L29.52 22.153C29.6087 22.4314 29.8676 22.6202 30.1597 22.6196L39.1679 22.5996C39.8162 22.5982 40.0882 23.4267 39.5652 23.8098L32.2512 29.1671C32.0182 29.3378 31.9208 29.6386 32.0096 29.9135L34.8141 38.5909C35.0144 39.2105 34.3022 39.7226 33.7786 39.3355L26.5206 33.9701C26.2839 33.7951 25.9609 33.7951 25.7242 33.9701L18.4662 39.3355C17.9426 39.7226 17.2304 39.2105 17.4307 38.5909L20.2352 29.9135C20.324 29.6386 20.2266 29.3378 19.9936 29.1671L12.6796 23.8098C12.1566 23.4267 12.4286 22.5982 13.0769 22.5996L22.0851 22.6196C22.3772 22.6202 22.6361 22.4314 22.7248 22.153L25.4842 13.4871Z" fill="#709FFF"/>
</svg>
