<svg width="14" height="13" viewBox="0 0 14 13" fill="none" xmlns="http://www.w3.org/2000/svg">
<path d="M7.16695 0C7.40121 4.86974e-05 7.61423 0.135608 7.71382 0.347656L9.39839 3.93555L13.1552 4.5127C13.379 4.54715 13.5649 4.70417 13.6367 4.91895C13.7084 5.13377 13.6543 5.37117 13.496 5.5332L10.7607 8.33203L11.4072 12.2959C11.4443 12.5242 11.3481 12.7534 11.1591 12.8867C10.9699 13.02 10.7211 13.0338 10.5185 12.9219L7.16597 11.0684L3.81538 12.9219C3.61279 13.0339 3.36399 13.02 3.17476 12.8867C2.98569 12.7534 2.88952 12.5242 2.92671 12.2959L3.57222 8.33203L0.837844 5.5332C0.679575 5.37115 0.625461 5.13379 0.697219 4.91895C0.768993 4.70411 0.95478 4.54709 1.17866 4.5127L4.93452 3.93555L6.62007 0.347656L6.66206 0.271484C6.77282 0.103557 6.96197 0 7.16695 0ZM5.89156 4.74121C5.80596 4.92344 5.63547 5.05145 5.43648 5.08203L2.52437 5.5293L4.65132 7.70605C4.78545 7.84338 4.84628 8.0371 4.81538 8.22656L4.31929 11.2617L6.87398 9.84961C7.05586 9.74908 7.27702 9.74917 7.45894 9.84961L10.0126 11.2617L9.51851 8.22656C9.48761 8.0371 9.54844 7.84338 9.68257 7.70605L11.8085 5.5293L8.89741 5.08203C8.69839 5.05145 8.52695 4.92348 8.44136 4.74121L7.16597 2.02539L5.89156 4.74121ZM6.82906 3.69238C6.93102 3.36003 7.40189 3.36003 7.50386 3.69238L8.05074 5.47461C8.09639 5.62283 8.2335 5.72399 8.38863 5.72363L10.206 5.71973C10.5442 5.71895 10.6891 6.14785 10.4199 6.35254L8.91792 7.49512C8.79982 7.5849 8.74986 7.73921 8.7939 7.88086L9.36421 9.70996C9.46649 10.0386 9.08551 10.3042 8.81245 10.0947L7.38081 8.99707C7.25417 8.89992 7.07874 8.89991 6.9521 8.99707L5.52046 10.0947C5.24741 10.3042 4.86644 10.0385 4.9687 9.70996L5.53902 7.88086C5.58307 7.7392 5.5331 7.5849 5.41499 7.49512L3.91304 6.35254C3.64379 6.14786 3.7887 5.71897 4.12691 5.71973L5.94429 5.72363C6.09941 5.72399 6.23652 5.62282 6.28218 5.47461L6.82906 3.69238Z" fill="#224999"/>
</svg>
