<svg width="230" height="68" viewBox="0 0 230 68" fill="none" xmlns="http://www.w3.org/2000/svg">
<mask id="path-1-inside-1_969_34420" fill="white">
<path d="M0 0H230V62.334C230 65.1153 227.745 67.37 224.964 67.37H5.03604C2.25471 67.37 0 65.1153 0 62.334V0Z"/>
</mask>
<path d="M-1.36758 -1.37H231.368L228.632 1.37H1.36758L-1.36758 -1.37ZM231.368 62.334C231.368 65.8706 228.501 68.7376 224.964 68.7376H5.03604C1.49941 68.7376 -1.36758 65.8706 -1.36758 62.334L1.36758 62.334C1.36758 64.36 3.01001 66.0024 5.03604 66.0024H224.964C226.99 66.0024 228.632 64.36 228.632 62.334L231.368 62.334ZM5.03604 68.7376C1.49941 68.7376 -1.36758 65.8706 -1.36758 62.334V-1.37L1.36758 1.37V62.334C1.36758 64.36 3.01001 66.0024 5.03604 66.0024L5.03604 68.7376ZM231.368 -1.37V62.334C231.368 65.8706 228.501 68.7376 224.964 68.7376L224.964 66.0024C226.99 66.0024 228.632 64.36 228.632 62.334V1.37L231.368 -1.37Z" fill="#96BBFF" mask="url(#path-1-inside-1_969_34420)"/>
<path fill-rule="evenodd" clip-rule="evenodd" d="M103.993 5.03988H122.565V23.8393H103.993V5.03988ZM102 25.8791H124.56V3H102V25.8791Z" fill="#96BBFF"/>
<path d="M105.551 22.3193V6.78516H121.337V22.3193H105.551Z" stroke="#96BBFF" stroke-width="0.808505"/>
</svg>
