<svg width="230" height="109" viewBox="0 0 230 109" fill="none" xmlns="http://www.w3.org/2000/svg">
<path d="M5.03613 0.683594H224.964C227.368 0.683594 229.316 2.63245 229.316 5.03613V108.316H0.683594V5.03613C0.683594 2.63245 2.63245 0.683594 5.03613 0.683594Z" stroke="#96BBFF" stroke-width="1.36758"/>
<path fill-rule="evenodd" clip-rule="evenodd" d="M126.346 94.244C123.619 96.0664 122.743 97.9851 122.743 100.479V107.002H103.844V99.9035C103.844 92.7485 104.942 88.5637 109.616 85.1698L110.079 84.8442C110.667 84.4434 111.241 84.0535 111.802 83.6732C119.428 78.4996 124.444 75.0975 124.771 69.9432L124.788 69.4012C124.788 65.1268 121.68 61.4817 116.172 61.2582L115.631 61.2482C109.875 61.2482 105.672 64.2184 104.796 72.2527L104.722 73.0456H86.6027C86.6028 53.3824 100.533 45.2298 115.826 45.2298L116.541 45.2354C131.509 45.4861 143.686 53.633 143.686 69.4012L143.681 69.941C143.477 81.205 136.894 87.4457 126.346 94.244ZM140.652 84.7906C143.919 80.5407 145.715 75.6317 145.715 69.4012C145.715 60.8235 142.323 54.198 136.77 49.7574C131.269 45.3591 123.815 43.2315 115.826 43.2314C107.841 43.2314 100.024 45.3571 94.168 50.2381C88.2582 55.1641 84.5733 62.7087 84.5732 73.0456V75.044H106.6L106.745 73.2006C107.064 69.1623 108.201 66.7391 109.639 65.323C111.052 63.9319 113.027 63.2466 115.631 63.2466C118.101 63.2466 119.86 64.0281 120.989 65.1056C122.125 66.1886 122.758 67.6958 122.758 69.4012C122.758 71.5474 121.735 73.4073 119.369 75.5938C117.264 77.5389 114.352 79.5146 110.67 82.0131C110.106 82.396 109.524 82.7912 108.924 83.2004C106.097 85.127 104.253 87.3553 103.164 90.1914C102.105 92.9482 101.816 96.1458 101.816 99.9035V109H124.772V100.479C124.772 99.4718 124.946 98.7155 125.307 98.0601C125.626 97.4789 126.156 96.86 127.07 96.1888L127.486 95.8978C132.875 92.4224 137.444 88.9649 140.652 84.7906Z" fill="#96BBFF"/>
<path d="M126.067 108.56C126.192 105.199 126.067 102.267 126.389 99.9555C126.711 97.6436 140.238 90.2787 144.353 82.2124C149.497 72.1294 150.298 48.4049 126.067 42.959C101.527 37.4438 88.73 50.8689 86.136 57.0402C83.2788 63.838 82.073 72.7018 83.0522 77.1126H108.521C108.441 72.6502 110.646 65.0154 115.864 65.6134C122.387 66.3609 119.574 73.144 115.864 75.942C112.154 78.74 104.521 82.0515 101.649 88.7787C99.3509 94.1605 99.6901 104.931 100.153 108.56" stroke="#96BBFF" stroke-width="1.37"/>
</svg>
