<svg width="275" height="55" viewBox="0 0 275 55" fill="none" xmlns="http://www.w3.org/2000/svg">
<g filter="url(#filter0_dd_935_15917)">
<path d="M261.812 7.00098C266.334 7.00098 270 10.6664 270 15.1885V27.4629C270 31.985 266.334 35.6504 261.812 35.6504H239.608L232.355 47.665C232.279 47.7924 232.124 47.8502 231.982 47.8037C231.859 47.763 231.774 47.6517 231.764 47.5254V47.4697C231.764 47.4692 231.765 47.468 231.765 47.4668C231.765 47.4643 231.765 47.4601 231.766 47.4551C231.767 47.4444 231.768 47.4278 231.77 47.4063C231.773 47.3623 231.777 47.2964 231.781 47.2109C231.79 47.0392 231.797 46.7874 231.796 46.4736C231.793 45.845 231.754 44.9663 231.602 43.9727C231.296 41.9789 230.545 39.5539 228.79 37.7217C228.044 36.9426 227.293 36.2547 226.574 35.6504H13.1885C8.66637 35.6504 5.00001 31.985 5 27.4629V15.1885C5.00003 10.6664 8.66639 7.00098 13.1885 7.00098H261.812Z" fill="#B3C8FD" fill-opacity="0.5" shape-rendering="crispEdges"/>
<path d="M261.812 7.00098L261.812 7.75098L261.812 7.75098L261.812 7.00098ZM270 15.1885L270.75 15.1885L270.75 15.1885L270 15.1885ZM270 27.4629L270.75 27.4629V27.4629H270ZM261.812 35.6504L261.812 36.4004L261.812 36.4004L261.812 35.6504ZM239.608 35.6504V34.9004C239.346 34.9004 239.102 35.0379 238.966 35.2628L239.608 35.6504ZM232.355 47.665L232.997 48.0528L232.998 48.0526L232.355 47.665ZM231.982 47.8037L231.748 48.516L231.748 48.5162L231.982 47.8037ZM231.764 47.5254H231.014C231.014 47.5455 231.014 47.5655 231.016 47.5855L231.764 47.5254ZM231.764 47.4697L231.029 47.3184C231.019 47.3682 231.014 47.4189 231.014 47.4697H231.764ZM231.765 47.4668L232.512 47.5328L232.512 47.5279L231.765 47.4668ZM231.766 47.4551L231.018 47.3928L231.018 47.393L231.766 47.4551ZM231.77 47.4063L232.518 47.4604L232.518 47.4603L231.77 47.4063ZM231.781 47.2109L232.53 47.2479L232.53 47.2479L231.781 47.2109ZM231.796 46.4736L232.546 46.4706L232.546 46.4706L231.796 46.4736ZM231.602 43.9727L232.343 43.8591L232.343 43.8591L231.602 43.9727ZM228.79 37.7217L229.332 37.2028L229.332 37.2028L228.79 37.7217ZM226.574 35.6504L227.057 35.0764C226.922 34.9627 226.751 34.9004 226.574 34.9004V35.6504ZM13.1885 35.6504L13.1885 34.9004L13.1885 34.9004L13.1885 35.6504ZM5 27.4629L4.25 27.4629L4.25 27.4629L5 27.4629ZM5 15.1885L4.25 15.1885V15.1885H5ZM13.1885 7.00098L13.1885 6.25098L13.1885 6.25098L13.1885 7.00098ZM261.812 7.00098L261.812 7.75098C265.92 7.75098 269.25 11.0807 269.25 15.1885L270 15.1885L270.75 15.1885C270.75 10.252 266.748 6.25098 261.812 6.25098L261.812 7.00098ZM270 15.1885H269.25V27.4629H270H270.75V15.1885H270ZM270 27.4629L269.25 27.4629C269.25 31.5706 265.92 34.9004 261.812 34.9004L261.812 35.6504L261.812 36.4004C266.748 36.4004 270.75 32.3993 270.75 27.4629L270 27.4629ZM261.812 35.6504V34.9004H239.608V35.6504V36.4004H261.812V35.6504ZM239.608 35.6504L238.966 35.2628L231.713 47.2774L232.355 47.665L232.998 48.0526L240.25 36.038L239.608 35.6504ZM232.355 47.665L231.714 47.2772C231.816 47.1071 232.024 47.0279 232.217 47.0913L231.982 47.8037L231.748 48.5162C232.223 48.6725 232.741 48.4777 232.997 48.0528L232.355 47.665ZM231.982 47.8037L232.217 47.0914C232.385 47.1467 232.498 47.2959 232.511 47.4653L231.764 47.5254L231.016 47.5855C231.05 48.0075 231.333 48.3792 231.748 48.516L231.982 47.8037ZM231.764 47.5254H232.514V47.4697H231.764H231.014V47.5254H231.764ZM231.764 47.4697L232.498 47.6211C232.493 47.6489 232.486 47.6717 232.481 47.6876C232.476 47.7038 232.472 47.7172 232.468 47.7268C232.462 47.7448 232.456 47.7586 232.454 47.7631C232.452 47.7674 232.45 47.7724 232.451 47.7695C232.451 47.7686 232.454 47.7638 232.456 47.7576C232.461 47.7458 232.472 47.72 232.482 47.6864C232.492 47.6534 232.506 47.6001 232.512 47.5328L231.765 47.4668L231.018 47.4008C231.023 47.3341 231.037 47.2813 231.047 47.249C231.057 47.2159 231.067 47.1907 231.072 47.1794C231.075 47.1735 231.077 47.1689 231.077 47.1682C231.078 47.1656 231.076 47.1708 231.074 47.1753C231.072 47.18 231.066 47.194 231.059 47.2122C231.056 47.2219 231.051 47.2354 231.046 47.2517C231.041 47.2676 231.035 47.2905 231.029 47.3184L231.764 47.4697ZM231.765 47.4668L232.512 47.5279C232.512 47.5259 232.512 47.5242 232.513 47.5172L231.766 47.4551L231.018 47.393C231.018 47.396 231.017 47.4028 231.017 47.4057L231.765 47.4668ZM231.766 47.4551L232.513 47.5174C232.514 47.5095 232.516 47.4872 232.518 47.4604L231.77 47.4063L231.021 47.3521C231.02 47.3684 231.019 47.3792 231.018 47.3928L231.766 47.4551ZM231.77 47.4063L232.518 47.4603C232.521 47.4113 232.526 47.3396 232.53 47.2479L231.781 47.2109L231.032 47.174C231.028 47.2531 231.024 47.3133 231.021 47.3522L231.77 47.4063ZM231.781 47.2109L232.53 47.2479C232.539 47.0625 232.547 46.7974 232.546 46.4706L231.796 46.4736L231.046 46.4766C231.047 46.7774 231.04 47.0158 231.032 47.174L231.781 47.2109ZM231.796 46.4736L232.546 46.4706C232.543 45.8144 232.502 44.8976 232.343 43.8591L231.602 43.9727L230.86 44.0862C231.006 45.035 231.043 45.8756 231.046 46.4767L231.796 46.4736ZM231.602 43.9727L232.343 43.8591C232.026 41.7914 231.238 39.1925 229.332 37.2028L228.79 37.7217L228.248 38.2405C229.853 39.9152 230.566 42.1663 230.86 44.0862L231.602 43.9727ZM228.79 37.7217L229.332 37.2028C228.564 36.4017 227.793 35.6954 227.057 35.0764L226.574 35.6504L226.092 36.2244C226.793 36.8139 227.523 37.4836 228.248 38.2405L228.79 37.7217ZM226.574 35.6504V34.9004H13.1885V35.6504V36.4004H226.574V35.6504ZM13.1885 35.6504L13.1885 34.9004C9.08047 34.9004 5.75001 31.5707 5.75 27.4629L5 27.4629L4.25 27.4629C4.25001 32.3993 8.25228 36.4004 13.1885 36.4004L13.1885 35.6504ZM5 27.4629H5.75V15.1885H5H4.25V27.4629H5ZM5 15.1885L5.75 15.1885C5.75002 11.0807 9.08049 7.75098 13.1885 7.75098L13.1885 7.00098L13.1885 6.25098C8.25229 6.25098 4.25003 10.2521 4.25 15.1885L5 15.1885ZM13.1885 7.00098V7.75098H261.812V7.00098V6.25098H13.1885V7.00098Z" fill="white"/>
</g>
<defs>
<filter id="filter0_dd_935_15917" x="0.25" y="0.250977" width="274.5" height="54.3188" filterUnits="userSpaceOnUse" color-interpolation-filters="sRGB">
<feFlood flood-opacity="0" result="BackgroundImageFix"/>
<feColorMatrix in="SourceAlpha" type="matrix" values="0 0 0 0 0 0 0 0 0 0 0 0 0 0 0 0 0 0 127 0" result="hardAlpha"/>
<feOffset dy="2"/>
<feGaussianBlur stdDeviation="2"/>
<feComposite in2="hardAlpha" operator="out"/>
<feColorMatrix type="matrix" values="0 0 0 0 1 0 0 0 0 1 0 0 0 0 1 0 0 0 0.25 0"/>
<feBlend mode="normal" in2="BackgroundImageFix" result="effect1_dropShadow_935_15917"/>
<feColorMatrix in="SourceAlpha" type="matrix" values="0 0 0 0 0 0 0 0 0 0 0 0 0 0 0 0 0 0 127 0" result="hardAlpha"/>
<feOffset dy="-2"/>
<feGaussianBlur stdDeviation="2"/>
<feComposite in2="hardAlpha" operator="out"/>
<feColorMatrix type="matrix" values="0 0 0 0 1 0 0 0 0 1 0 0 0 0 1 0 0 0 0.25 0"/>
<feBlend mode="normal" in2="effect1_dropShadow_935_15917" result="effect2_dropShadow_935_15917"/>
<feBlend mode="normal" in="SourceGraphic" in2="effect2_dropShadow_935_15917" result="shape"/>
</filter>
</defs>
</svg>
