<svg width="60" height="60" viewBox="0 0 60 60" fill="none" xmlns="http://www.w3.org/2000/svg">
<circle cx="29.8542" cy="29.854" r="29.8542" fill="url(#paint0_radial_935_11201)" fill-opacity="0.14"/>
<circle cx="29.8542" cy="29.854" r="29.3878" stroke="url(#paint1_linear_935_11201)" stroke-opacity="0.39" stroke-width="0.932945"/>
<path d="M45.0386 25.8906L42.0384 24.8905L43.4512 22.065C43.5944 21.7692 43.6423 21.4363 43.5883 21.1122C43.5343 20.7881 43.381 20.4887 43.1496 20.2554L39.7685 16.8742C39.5339 16.6394 39.2316 16.484 38.9042 16.4299C38.5767 16.3758 38.2406 16.4257 37.943 16.5726L35.1174 17.9854L34.1173 14.9852C34.0117 14.6725 33.8112 14.4004 33.5438 14.207C33.2764 14.0135 32.9553 13.9082 32.6252 13.9058H27.863C27.5302 13.9049 27.2056 14.0087 26.935 14.2024C26.6643 14.3961 26.4615 14.6699 26.355 14.9852L25.3549 17.9854L22.5293 16.5726C22.2336 16.4294 21.9007 16.3815 21.5765 16.4355C21.2524 16.4895 20.953 16.6428 20.7197 16.8742L17.3386 20.2554C17.1038 20.4899 16.9484 20.7922 16.8943 21.1196C16.8402 21.4471 16.8901 21.7832 17.0369 22.0809L18.4497 24.9064L15.4496 25.9065C15.1368 26.0121 14.8648 26.2126 14.6713 26.48C14.4779 26.7475 14.3726 27.0686 14.3701 27.3986V32.1608C14.3693 32.4936 14.473 32.8183 14.6667 33.0889C14.8604 33.3595 15.1343 33.5624 15.4496 33.6688L18.4497 34.6689L17.0369 37.4945C16.8937 37.7902 16.8458 38.1231 16.8999 38.4473C16.9539 38.7714 17.1072 39.0708 17.3386 39.3041L20.7197 42.6853C20.9543 42.9201 21.2565 43.0754 21.584 43.1295C21.9114 43.1836 22.2476 43.1337 22.5452 42.9869L25.3708 41.5741L26.3708 44.5743C26.4773 44.8896 26.6802 45.1634 26.9508 45.3571C27.2214 45.5508 27.5461 45.6545 27.8789 45.6537H32.6411C32.9738 45.6545 33.2985 45.5508 33.5691 45.3571C33.8397 45.1634 34.0426 44.8896 34.1491 44.5743L35.1491 41.5741L37.9747 42.9869C38.2686 43.1265 38.5982 43.1724 38.9191 43.1185C39.2399 43.0645 39.5364 42.9133 39.7685 42.6853L43.1496 39.3041C43.3844 39.0695 43.5398 38.7673 43.5939 38.4398C43.648 38.1124 43.5981 37.7762 43.4512 37.4786L42.0384 34.653L45.0386 33.653C45.3513 33.5474 45.6234 33.3469 45.8168 33.0794C46.0103 32.812 46.1156 32.4909 46.118 32.1608V27.3986C46.1189 27.0658 46.0152 26.7412 45.8215 26.4706C45.6278 26.2 45.3539 25.9971 45.0386 25.8906ZM42.9433 31.0179L41.0384 31.6529C40.6003 31.7949 40.1985 32.0306 39.8606 32.3435C39.5228 32.6564 39.257 33.0391 39.0818 33.465C38.9067 33.8909 38.8262 34.3498 38.8461 34.8098C38.866 35.2699 38.9857 35.7201 39.197 36.1293L40.1018 37.9389L38.3557 39.6851L36.5937 38.7326C36.1866 38.5298 35.7407 38.4169 35.2861 38.4013C34.8316 38.3858 34.379 38.4682 33.9591 38.6428C33.5391 38.8174 33.1616 39.0802 32.852 39.4134C32.5425 39.7466 32.3081 40.1424 32.1648 40.574L31.5299 42.4789H29.0059L28.371 40.574C28.2289 40.136 27.9932 39.7341 27.6803 39.3963C27.3674 39.0584 26.9847 38.7927 26.5588 38.6175C26.1329 38.4423 25.6741 38.3619 25.214 38.3818C24.7539 38.4016 24.3037 38.5214 23.8945 38.7326L22.0849 39.6375L20.3387 37.8913L21.2912 36.1293C21.5024 35.7201 21.6222 35.2699 21.6421 34.8098C21.6619 34.3498 21.5815 33.8909 21.4063 33.465C21.2311 33.0391 20.9654 32.6564 20.6276 32.3435C20.2897 32.0306 19.8878 31.7949 19.4498 31.6529L17.5449 31.0179V28.5416L19.4498 27.9066C19.8878 27.7645 20.2897 27.5288 20.6276 27.2159C20.9654 26.903 21.2311 26.5203 21.4063 26.0945C21.5815 25.6686 21.6619 25.2097 21.6421 24.7496C21.6222 24.2896 21.5024 23.8393 21.2912 23.4301L20.3864 21.6681L22.1325 19.922L23.8945 20.8268C24.3037 21.0381 24.7539 21.1578 25.214 21.1777C25.6741 21.1976 26.1329 21.1171 26.5588 20.942C26.9847 20.7668 27.3674 20.501 27.6803 20.1632C27.9932 19.8253 28.2289 19.4235 28.371 18.9854L29.0059 17.0806H31.4823L32.1172 18.9854C32.2593 19.4235 32.495 19.8253 32.8079 20.1632C33.1208 20.501 33.5035 20.7668 33.9294 20.942C34.3552 21.1171 34.8141 21.1976 35.2742 21.1777C35.7343 21.1578 36.1845 21.0381 36.5937 20.8268L38.4033 19.922L40.1494 21.6681L39.197 23.4301C38.9942 23.8372 38.8812 24.2831 38.8657 24.7377C38.8502 25.1922 38.9325 25.6448 39.1071 26.0647C39.2817 26.4847 39.5445 26.8622 39.8777 27.1718C40.2109 27.4813 40.6067 27.7157 41.0384 27.859L42.9433 28.4939V31.0179ZM30.2441 23.4301C28.9883 23.4301 27.7606 23.8025 26.7164 24.5002C25.6723 25.1979 24.8584 26.1896 24.3778 27.3498C23.8972 28.5101 23.7715 29.7868 24.0165 31.0185C24.2615 32.2502 24.8662 33.3816 25.7542 34.2696C26.6423 35.1576 27.7736 35.7623 29.0053 36.0073C30.237 36.2523 31.5137 36.1266 32.674 35.646C33.8342 35.1654 34.8259 34.3516 35.5236 33.3074C36.2213 32.2632 36.5937 31.0356 36.5937 29.7797C36.5937 28.0957 35.9247 26.4807 34.7339 25.2899C33.5431 24.0991 31.9281 23.4301 30.2441 23.4301V23.4301ZM30.2441 32.9545C29.6162 32.9545 29.0024 32.7683 28.4803 32.4195C27.9582 32.0706 27.5512 31.5748 27.311 30.9947C27.0707 30.4146 27.0078 29.7762 27.1303 29.1604C27.2528 28.5445 27.5552 27.9788 27.9992 27.5348C28.4432 27.0908 29.0089 26.7884 29.6247 26.6659C30.2406 26.5434 30.8789 26.6063 31.459 26.8466C32.0391 27.0869 32.535 27.4938 32.8838 28.0159C33.2327 28.538 33.4189 29.1518 33.4189 29.7797C33.4189 30.6217 33.0844 31.4293 32.489 32.0246C31.8936 32.62 31.0861 32.9545 30.2441 32.9545Z" fill="white"/>
<defs>
<radialGradient id="paint0_radial_935_11201" cx="0" cy="0" r="1" gradientUnits="userSpaceOnUse" gradientTransform="translate(29.8542 29.854) rotate(90) scale(29.8542)">
<stop stop-color="#474A9A"/>
<stop offset="1" stop-color="#C2C5F6"/>
</radialGradient>
<linearGradient id="paint1_linear_935_11201" x1="13.1195" y1="6.99684" x2="44.3732" y2="59.7082" gradientUnits="userSpaceOnUse">
<stop stop-color="#BEC1E8"/>
<stop offset="1" stop-color="white"/>
</linearGradient>
</defs>
</svg>
