<svg width="175" height="59" viewBox="0 0 175 59" fill="none" xmlns="http://www.w3.org/2000/svg">
<path d="M161.704 0.348633L174.023 9.90039L174.667 10.4004V24.9531L173.851 25.4355L172.203 26.4092V29.791L174.053 31.2939L174.667 31.793V48.4648L174.013 48.9639L161.692 58.3535L161.246 58.6943H12.043L11.5762 58.2959L0.583008 48.9053L0 48.4082V31.4658L1.03711 31.0439L4.92773 29.4639V26.3584L0.75 23.6133L0 23.1211V10.457L0.572266 9.95996L11.5654 0.408203L12.0352 0H161.254L161.704 0.348633ZM3.32617 11.9717V21.3262L7.50391 24.0723L8.25391 24.5645V31.7031L7.2168 32.125L3.32617 33.7041V46.874L13.2695 55.3682H89.9561L96.7275 48H138.407L146.065 55.3682H160.124L171.342 46.8174V33.377L169.492 31.875L168.878 31.376V24.5127L169.694 24.0303L171.342 23.0557V12.0303L160.115 3.32617H84.707L77.9404 10.6895H36.2607L28.6074 3.32617H13.2773L3.32617 11.9717Z" fill="url(#paint0_linear_906_17733)"/>
<defs>
<linearGradient id="paint0_linear_906_17733" x1="16.5063" y1="-1.37818e-05" x2="170.846" y2="58.6943" gradientUnits="userSpaceOnUse">
<stop stop-color="#90A8DD"/>
<stop offset="1" stop-color="#5D5EB3"/>
</linearGradient>
</defs>
</svg>
