<svg width="204" height="53" viewBox="0 0 204 53" fill="none" xmlns="http://www.w3.org/2000/svg">
<path d="M1 19.2009V10.2009L14 1.20093H188.5L203 9.70093L203.5 21.2009L199.5 22.7009V27.2009L203 29.2009L203.5 42.7009L188.5 51.2009H14L1 42.2009V29.2009L7 27.2009V22.7009L1 19.2009Z" fill="#FF6565" fill-opacity="0.27"/>
<path d="M188.991 0.635498L203.52 9.20874L204 9.49194V22.1619L203.424 22.4207L201.094 23.4685V26.8894L203.536 28.3992L204 28.6863V43.3074L203.513 43.5896L188.985 52.0173L188.758 52.1492H13.6514L13.4082 51.991L0.445312 43.5632L0 43.2742V28.5095L0.688477 28.2976L5.81152 26.7126V23.4412L0.540039 20.8054L0 20.5349V9.52515L0.438477 9.23511L13.4014 0.661865L13.6465 0.499756H188.762L188.991 0.635498ZM1.95508 10.5759V19.3269L7.22559 21.9636L7.76562 22.2332V28.156L7.07715 28.3689L1.95508 29.9519V42.2136L14.2314 50.1951H104.92L113.527 43.0671H162.676L172.41 50.1951H188.232L202.045 42.1814V29.7751L199.604 28.2664L199.14 27.9792V22.2058L199.716 21.946L202.045 20.8972V10.6082L188.229 2.45483H99.9756L91.373 9.57983H42.2246L32.4951 2.45483H14.2344L1.95508 10.5759Z" fill="url(#paint0_linear_720_19813)"/>
<defs>
<linearGradient id="paint0_linear_720_19813" x1="0" y1="26.3244" x2="204" y2="26.3244" gradientUnits="userSpaceOnUse">
<stop stop-color="#FF9898"/>
<stop offset="1" stop-color="#FF0000"/>
</linearGradient>
</defs>
</svg>
