<svg width="35" height="35" viewBox="0 0 35 35" fill="none" xmlns="http://www.w3.org/2000/svg">
<path d="M23.1466 16.1485H18.6719V12.0144L30.3507 0.935547H34.792V5.01077L23.1466 16.1485Z" fill="url(#paint0_linear_906_10861)"/>
<path d="M18.9568 23.2105L18.7354 18.7412L22.8644 18.5366L34.5077 29.6528L34.3782 34.2904L30.6573 34.2904L18.9568 23.2105Z" fill="white"/>
<path d="M11.6454 18.6933L16.1201 18.6933L16.1201 22.8274L4.44129 33.9062L-4.00543e-05 33.9062L-3.96981e-05 29.831L11.6454 18.6933Z" fill="url(#paint1_linear_906_10861)"/>
<path d="M15.8342 11.6313L16.0556 16.1006L11.9266 16.3052L0.283328 5.189L0.0635204 0.753112L4.18779 0.753113L15.8342 11.6313Z" fill="white"/>
<defs>
<linearGradient id="paint0_linear_906_10861" x1="26.732" y1="0.935547" x2="26.732" y2="16.1485" gradientUnits="userSpaceOnUse">
<stop stop-color="#8473FF"/>
<stop offset="1" stop-color="#98AAFF"/>
</linearGradient>
<linearGradient id="paint1_linear_906_10861" x1="8.06004" y1="33.9062" x2="8.06004" y2="18.6933" gradientUnits="userSpaceOnUse">
<stop stop-color="#8473FF"/>
<stop offset="1" stop-color="#98AAFF"/>
</linearGradient>
</defs>
</svg>
