<svg width="565" height="432" viewBox="0 0 565 432" fill="none" xmlns="http://www.w3.org/2000/svg">
<path d="M518.338 79.2575L476.695 38.0637L84.6007 38.0637L45.6616 79.2574L45.6616 354.605L84.6007 394.172L476.695 394.173L518.338 354.605L518.338 79.2575Z" fill="url(#paint0_linear_726_20228)" fill-opacity="0.59"/>
<path d="M510.065 4.21536L560.455 54.6059L560.455 102.117L547.498 114.355L547.498 315.917L560.455 327.434L560.455 379.265L509.891 427.215L400.954 428.215L388.408 414.538L267.47 414.538L253.793 428.215L204.122 428.215L200.391 425.215L174.891 425.215L170.289 428.215L123.498 428.215L119.391 425.215L48.3912 425.215L4.00004 379.265L4.00005 327.434L15.5179 315.917L15.5179 114.355L4.00006 102.117L4.00006 54.6058L47.1919 9.25439L119.178 9.25439L123.498 4.21534L170.289 4.21535L174.608 9.25439L199.803 9.2544L204.122 4.21535L253.793 4.21535L267.47 16.453L388.408 16.453L397.766 4.21536L510.065 4.21536Z" stroke="#949FCA" stroke-width="7.19864"/>
<path d="M1.2766 309.851L1.27661 123.195L6.39966 127.479L6.39965 305.567L1.2766 309.851Z" fill="#949FCA"/>
<path d="M562.338 123.195L562.338 309.851L557.215 305.567L557.215 127.479L562.338 123.195Z" fill="#949FCA"/>
<path d="M268.996 4.06374L384.284 4.06375L381.638 9.1868L271.642 9.18679L268.996 4.06374Z" fill="#949FCA"/>
<path d="M268.996 428.064L384.284 428.064L381.638 422.941L271.642 422.941L268.996 428.064Z" fill="#949FCA"/>
<defs>
<linearGradient id="paint0_linear_726_20228" x1="636.187" y1="216.118" x2="-129.831" y2="216.118" gradientUnits="userSpaceOnUse">
<stop offset="0.200818" stop-color="#0B0D3D"/>
<stop offset="0.501491" stop-color="#1A1D51" stop-opacity="0.7"/>
<stop offset="0.855616" stop-color="#8388DB" stop-opacity="0.4"/>
</linearGradient>
</defs>
</svg>
