<svg width="56" height="57" viewBox="0 0 56 57" fill="none" xmlns="http://www.w3.org/2000/svg">
<path d="M27.9997 4.72656L35.2097 19.5205L51.3331 21.9074L39.6664 33.4164L42.4197 49.6755L27.9997 41.995L13.5797 49.6755L16.333 33.4164L4.66638 21.9074L20.7897 19.5205L27.9997 4.72656Z" stroke="#346BDC" stroke-width="2.46073" stroke-linecap="round" stroke-linejoin="round"/>
<path d="M27.3156 14.457C27.528 13.7902 28.4715 13.7902 28.6838 14.457L31.6416 23.7457C31.7366 24.0441 32.0141 24.2465 32.3273 24.2458L41.9829 24.2244C42.6777 24.2229 42.9693 25.111 42.4087 25.5216L34.569 31.264C34.3193 31.4469 34.2149 31.7694 34.3101 32.064L37.3162 41.3651C37.5308 42.0293 36.7675 42.5782 36.2063 42.1633L28.4265 36.4121C28.1729 36.2246 27.8266 36.2246 27.5729 36.4121L19.7932 42.1633C19.232 42.5782 18.4686 42.0293 18.6833 41.3651L21.6894 32.064C21.7846 31.7694 21.6802 31.4469 21.4305 31.264L13.5908 25.5216C13.0302 25.111 13.3217 24.2229 14.0166 24.2244L23.6722 24.2458C23.9854 24.2465 24.2629 24.0441 24.3579 23.7457L27.3156 14.457Z" fill="#709FFF"/>
</svg>
