<svg width="145" height="20" viewBox="0 0 145 20" fill="none" xmlns="http://www.w3.org/2000/svg">
<path d="M87.1528 19.1494L88.8727 14.8341H78.9285V5.54664H89.4043L91.1867 0.980896H77.0209C74.7193 0.980896 74.144 2.8572 74.144 3.79535C74.1231 7.08924 74.0939 14.1961 74.144 16.2725C74.194 18.3489 76.0828 19.0556 77.0209 19.1494H87.1528Z" fill="white"/>
<path d="M71.486 5.64045L73.2685 1.07501H58.0707V19.1496H73.2685L71.6736 14.6778H62.6675V12.395H71.0482V8.2047H62.6675V5.64045H71.486Z" fill="white"/>
<path d="M37.6834 19.1264L35.9078 14.6478V1.05279H41.2081L45.8988 7.83716L50.775 1.05279H56.2077V19.1264H51.4375V9.02947L45.8988 15.9729L40.5985 9.02947V19.1264H37.6834Z" fill="white"/>
<path d="M15.3256 5.70404L16.9608 1.25914C12.7615 1.21309 3.97141 1.12559 2.40532 1.14402C0.839224 1.16244 0.155975 3.08629 0.0101122 4.04591C0.00243524 7.6771 -0.00831252 15.2619 0.0101122 16.5517C0.028537 17.8414 1.61459 18.9008 2.40532 19.2693H14.128L16.2929 13.811V8.28358H8.09394V12.5213H11.894V14.9395H4.54719V5.70404H15.3256Z" fill="white"/>
<path fill-rule="evenodd" clip-rule="evenodd" d="M29.489 1.28433L36.4138 19.2697H31.3649L30.1237 16.1798H22.1237L21.1032 19.2697H16.1657L22.8415 1.28433H29.489ZM23.864 11.9396H28.7145L26.2194 5.99624L23.864 11.9396Z" fill="white"/>
<path fill-rule="evenodd" clip-rule="evenodd" d="M102.206 1.28433L109.13 19.2697H104.082L102.84 16.1798H94.8403L93.8198 19.2697H88.8823L95.5581 1.28433H102.206ZM96.5815 11.9396H101.431L98.936 5.99625L96.5815 11.9396Z" fill="white"/>
<path d="M124.382 5.41031V1.08502H111.407C109.336 1.08502 108.796 2.69706 108.784 3.50308V9.66722C108.784 11.5199 110.533 12.2328 111.407 12.3576H120.023V14.7075H108.955L110.589 18.9986H122.339C124.409 18.9986 124.791 17.1368 124.723 16.206C124.734 15.0367 124.75 12.2691 124.723 10.5527C124.695 8.83625 123.122 8.08929 122.339 7.93036H113.518V5.41031H124.382Z" fill="white"/>
<path d="M126.017 5.37609V1.01712H144.066L142.466 5.37609H136.676V19.0668H132.113V5.37609H126.017Z" fill="white"/>
</svg>
