<svg width="258" height="32" viewBox="0 0 258 32" fill="none" xmlns="http://www.w3.org/2000/svg">
<path d="M10.3062 0L29.6468 8.60045e-06L25.6883 8.19183L15.0093 8.19189L11.1478 15.8792L15.0093 23.635H25.0873L29.6468 15.8792H21.795L25.7591 8.19189H43.8995L39.7248 15.8792H29.6468L34.4761 23.635L32.0906 27.8708L29.6468 32H10.3062L15.0093 23.635H5.60312L0.899536 15.8792L10.3062 0Z" fill="url(#paint0_linear_720_20005)"/>
<path d="M175.64 29.0044L178.102 22.828H163.869V9.53491H178.863L181.414 3H161.139C157.845 3 157.021 5.68554 157.021 7.0283C156.991 11.7428 156.949 21.9149 157.021 24.8868C157.093 27.8588 159.796 28.8702 161.139 29.0044H175.64Z" fill="white"/>
<path d="M153.217 9.66924L155.768 3.13477H134.015V29.0048H155.768L153.485 22.6044H140.595V19.337H152.59V13.3394H140.595V9.66924H153.217Z" fill="white"/>
<path d="M104.836 28.9712L102.294 22.561V3.10254H109.88L116.594 12.8129L123.573 3.10254H131.349V28.9712H124.522V14.5195L116.594 24.4576L109.008 14.5195V28.9712H104.836Z" fill="white"/>
<path d="M72.8351 9.75981L75.1755 3.39786C69.1651 3.33195 56.5839 3.20671 54.3423 3.23309C52.1008 3.25946 51.1229 6.01304 50.9141 7.38654C50.9031 12.5838 50.8877 23.4399 50.9141 25.2859C50.9405 27.1319 53.2106 28.6482 54.3423 29.1757H71.121L74.2196 21.3632V13.4519H62.4844V19.5172H67.9235V22.9785H57.408V9.75981H72.8351Z" fill="white"/>
<path fill-rule="evenodd" clip-rule="evenodd" d="M93.1078 3.43457L103.018 29.1768H95.7924L94.0161 24.7549H82.5659L81.1049 29.1768H74.0375L83.5922 3.43457H93.1078ZM85.0571 18.6855H91.9985L88.4272 10.1787L85.0571 18.6855Z" fill="white"/>
<path fill-rule="evenodd" clip-rule="evenodd" d="M197.187 3.43457L207.097 29.1768H199.871L198.095 24.7549H186.645L185.184 29.1768H178.116L187.671 3.43457H197.187ZM189.136 18.6855H196.077L192.506 10.1787L189.136 18.6855Z" fill="white"/>
<path d="M228.926 9.34018V3.14941H210.355C207.391 3.14941 206.618 5.45672 206.602 6.61037V15.4331C206.602 18.0847 209.104 19.1051 210.355 19.2838H222.687V22.6472H206.845L209.185 28.7889H226.002C228.965 28.7889 229.511 26.1243 229.414 24.7919C229.43 23.1184 229.453 19.1571 229.414 16.7004C229.375 14.2437 227.123 13.1746 226.002 12.9471H213.377V9.34018H228.926Z" fill="white"/>
<path d="M231.266 9.29072V3.05176H257.1L254.81 9.29072H246.523V28.8861H239.991V9.29072H231.266Z" fill="white"/>
<defs>
<linearGradient id="paint0_linear_720_20005" x1="129" y1="0" x2="129" y2="32" gradientUnits="userSpaceOnUse">
<stop stop-color="#F016B0"/>
<stop offset="1" stop-color="#7A1DC4"/>
</linearGradient>
</defs>
</svg>
