<svg width="208" height="27" viewBox="0 0 208 27" fill="none" xmlns="http://www.w3.org/2000/svg">
<path d="M53.0176 26.1768H45.792L44.0157 21.7549H32.5655L31.1045 26.1768H24.0371L33.5918 0.43457H43.1075L53.0176 26.1768ZM157.097 26.1768H149.871L148.095 21.7549H136.645L135.184 26.1768H128.116L137.671 0.43457H147.187L157.097 26.1768ZM4.34183 0.233398C6.58337 0.207027 19.1654 0.331547 25.1758 0.397461L22.835 6.75977H7.40824V19.9785H17.9229V16.5176H12.4844V10.4521H24.2198V18.3633L21.1211 26.1758H4.34183C3.21002 25.6483 0.940636 24.1319 0.914097 22.2861C0.887726 20.4402 0.903109 9.5841 0.914097 4.38672C1.12286 3.01331 2.10059 0.26011 4.34183 0.233398ZM103.217 6.66895H90.5948V10.3398H102.59V16.3369H90.5948V19.6045H103.485L105.768 26.0049H84.0157V0.134766H105.768L103.217 6.66895ZM128.863 6.53516H113.869V19.8281H128.103L125.641 26.0049H111.139C109.796 25.8707 107.092 24.8586 107.021 21.8867C106.949 18.9146 106.991 8.7428 107.021 4.02832C107.021 2.68556 107.845 3.55047e-05 111.139 0H131.414L128.863 6.53516ZM66.5938 9.8125L73.5733 0.102539H81.3487V25.9707H74.5215V11.5195L66.5938 21.458L59.0078 11.5195V25.9707H54.835L52.294 19.5605V0.102539H59.8799L66.5938 9.8125ZM204.81 6.29102H196.522V25.8857H189.991V6.29102H181.266V0.0517578H207.101L204.81 6.29102ZM178.926 6.33984H163.377V9.94727H176.002C177.123 10.1749 179.375 11.2439 179.414 13.7002C179.453 16.1569 179.43 20.1184 179.414 21.792C179.512 23.1243 178.965 25.7888 176.002 25.7891H159.185L156.845 19.6475H172.687V16.2842H160.355C159.103 16.1054 156.602 15.0842 156.602 12.4326V3.61035C156.618 2.45672 157.391 0.14954 160.355 0.149414H178.926V6.33984ZM35.0567 15.6855H41.9981L38.4268 7.17871L35.0567 15.6855ZM139.136 15.6855H146.077L142.506 7.17871L139.136 15.6855Z" fill="white"/>
</svg>
